<svg xmlns="http://www.w3.org/2000/svg" width="52" height="54" fill="none" viewBox="0 0 52 54">
  <path fill="#34364C" d="M17.05 30.845c-.34.489-.746.998-1.22 1.521-1.671 1.847-3.721 3.367-5.044 4.162l-.223.134c-.89.534-1.438 1.528-1.438 2.604V46.5c0 1.657 1.278 3 2.854 3h27.828c1.577 0 2.854-1.343 2.854-3v-7.234c0-1.076-.548-2.07-1.438-2.604l-.222-.134c-1.323-.795-3.373-2.315-5.045-4.162a15.426 15.426 0 0 1-1.22-1.52c1.252-.318 2.183-1.503 2.183-2.917v-4.884c0-.975-.45-1.889-1.208-2.45l-1.212-.9a10.82 10.82 0 0 0 1.095-4.766c0-5.76-4.442-10.429-9.922-10.429s-9.921 4.669-9.921 10.429c0 1.813.441 3.519 1.216 5.004l-.891.661a3.049 3.049 0 0 0-1.209 2.451v4.884c0 1.414.931 2.6 2.184 2.916Z"/>
  <path fill="#F4F7FA" d="M32.74 14.929c0 2.154-.873 4.094-2.267 5.451l3.592 2.665v4.884h-3.516c.17 2.263 1.551 4.529 3.34 6.505 1.897 2.097 4.18 3.788 5.696 4.699l.222.133V46.5H11.98v-7.234l.223-.133c1.516-.911 3.799-2.602 5.696-4.7 1.788-1.975 3.17-4.24 3.34-6.504H17.72v-4.884l3.346-2.482c-1.508-1.362-2.462-3.381-2.462-5.634 0-4.103 3.164-7.429 7.067-7.429 3.904 0 7.068 3.326 7.068 7.429Z"/>
</svg>
